<svg width="1080" height="1080" viewBox="0 0 1080 1080" fill="none" xmlns="http://www.w3.org/2000/svg">
<g clip-path="url(#clip0_1_2)">
<circle cx="540" cy="540" r="540" fill="#0A2463"/>
<path d="M468.444 372.773C470.86 373.945 479.887 381.821 483.01 384.114C502.417 398.364 526.764 420.614 548.479 430.218C562.66 436.49 595.284 439.864 611.986 442.807C637.472 446.857 662.559 453.049 686.747 462.068C716.457 473.13 743.126 490.58 767.804 510.27C789.345 527.457 810.111 553.922 820.637 579.629C877.301 718.054 788.445 849.163 653.098 889.966C587.548 909.579 517.483 908.036 452.858 885.554C442.674 882.109 432.572 878.027 422.759 873.615C416.263 870.695 408.682 865.81 402.154 863.362L401.512 863.128C408.243 859.183 414.439 854.543 421.288 850.842C424.796 851.691 428.504 852.812 431.927 853.968C454.786 861.659 477.851 866.385 501.711 869.92L508.004 870.706C582.549 879.604 656.337 864.136 716.661 817.218C787.859 761.846 808.455 658.105 751.324 585.171C740.4 571.226 729.544 559.881 714.584 549.736C667.164 517.575 607.415 503.282 550.682 501.789C530.591 501.353 511.93 510 490.882 509.542C468.02 509.045 453.108 499.166 430.939 498.393C418.958 498.218 406.923 501.447 395.324 503.468C382.474 505.707 369.547 504.824 356.639 503.369C368.844 500.321 377.722 502.751 374.172 485.638C371.39 472.225 358.67 477.218 348.288 479.058C369.886 463.742 388.411 466.946 413.034 463.668C430.23 461.379 456.031 450.291 468.571 438.086C464.532 439.651 456.146 444.296 452.02 446.459C457.841 438.094 459.712 434.881 463.218 425.315C456.723 433.287 453.867 438.006 446.223 445.856C451.978 432.261 449.624 429.897 452.724 417.297C455.997 403.992 463.031 385.333 468.444 372.773Z" fill="white"/>
<path d="M395.891 477.091C398.251 478.787 399.811 490.956 400.219 493.908C396.732 491.055 396.074 481.433 395.891 477.091Z" fill="white"/>
<path d="M402.52 475.998C407.33 481.041 406.345 485.096 405.71 491.489C404.951 490.929 402.994 478.331 402.52 475.998Z" fill="white"/>
<path d="M553.83 176.359C558.031 175.857 568.808 175.994 573.191 176.105C595.119 176.597 616.967 178.903 638.508 182.999C645.897 184.337 655.045 186.712 662.382 188.65C705.737 200.121 748.728 217.202 775.244 255.321C803.143 295.432 802.631 357.7 759.373 387.142C744.157 397.364 725.519 401.163 707.519 397.714C695.582 395.379 683.115 389.186 676.204 378.837C671.24 371.277 669.47 362.059 671.28 353.197C672.709 346.326 677.73 339.404 683.661 335.636C689.622 331.928 696.8 330.726 703.637 332.292C709.961 333.697 715.455 337.6 718.859 343.114C723.737 351.155 723.458 363.062 716.872 370.27C714.083 373.329 711.954 373.915 709.438 376.219C711.219 377.441 714.014 377.166 716.075 376.913C742.751 373.642 749.855 342.537 746.542 320.178C741.122 283.608 718.062 260.624 689.957 239.58C639.396 203.152 570.692 194.254 510.947 209.236C444.585 225.877 392.858 276.863 411.241 350.048C385.914 352.69 371.24 375.06 361.221 395.969C354.133 383.115 351.447 366.202 350.554 351.675C348.044 313.27 361.03 275.461 386.608 246.705C431.049 196.709 489.123 180.248 553.83 176.359Z" fill="white"/>
<path d="M292.891 709.281C291.618 706.075 290.601 705.267 292.414 702.136C296.108 695.765 300.781 690.032 304.552 683.713C307.817 678.241 310.39 670.612 314.158 665.654C315.899 665.141 315.072 665.113 316.724 665.625C317.263 667.242 316.275 669.218 315.67 670.948L317.689 670.601C319.625 667.407 318.631 668.21 321.454 666.593C327.211 666.684 326.569 675.873 326.438 679.898C326.42 680.627 326.389 681.356 326.345 682.079C325.139 683.297 323.282 685.369 321.863 686.155L321.704 686.81L322.563 686.963L322.923 686.73C324.142 685.398 324.151 685.244 325.804 684.39L326.821 684.709C327.263 685.699 327.729 686.468 327.848 687.51L329.371 688.375L329.978 689.235L330.271 693.032L330.387 693.522C332.802 703.519 340.016 706.946 335.382 718.783C335.904 722.683 334.187 721.031 334.315 723.838L335.193 724.743C334.352 726.679 331.472 727.453 329.143 728.541C330.438 729.139 331.131 729.304 332.5 729.554L333.456 730.904C335.732 728.666 336.73 726.97 340.178 727.425L340.539 728.381C337.973 733.261 336.422 733.061 332.122 735.919C320.033 743.969 308.881 756.728 300.892 768.792C298.981 771.673 299.455 775.43 296.147 776.734C294.567 773.181 300.836 760.087 302.084 755.919C305.374 746.771 311.105 732.344 313.798 723.383C316.773 721.72 321.873 718.817 318.574 714.61C317.743 713.545 316.515 712.873 315.175 712.736C308.733 712.105 310.531 719.176 311.861 722.637C310.136 727.186 299.604 755.322 298.872 759.187C297.779 762.495 294.531 773.904 291.849 775.715C289.958 773.096 292.749 765.843 292.964 761.066C293.478 750.215 292.78 739.335 290.882 728.638C289.815 722.466 287.95 715.538 287.56 709.452C288.501 708.045 288.561 707.624 290.101 706.969C291.518 708.267 291.207 708.432 291.913 710.55L292.507 710.448L292.891 709.281Z" fill="white"/>
<path d="M330.387 693.522C332.802 703.519 340.016 706.947 335.382 718.783C335.904 722.683 334.187 721.032 334.315 723.838L335.193 724.744C334.352 726.679 331.472 727.453 329.143 728.541C330.438 729.139 331.131 729.304 332.5 729.554L333.455 730.904C329.244 734.701 323.855 736.642 318.678 740.918C314.092 744.704 307.903 753.318 304.465 755.982C306.542 750.454 312.613 747.095 315.159 741.8C314.713 740.183 314.869 740.109 313.889 738.806L312.058 740.582C311.687 738.977 315.942 730.107 317.357 728.791C320.81 725.592 323.733 724.43 326.096 719.876L326.483 719.215L327.57 719.546C327.104 718.606 326.826 717.012 326.573 715.925C327.784 714.991 328.159 714.365 329.132 713.181C329.594 710.67 329.638 711.689 328.597 709.201L330.369 705.927L330.373 705.546C329.025 702.438 327.296 703.326 327.715 698.862C330.085 696.767 330.414 696.585 330.387 693.522Z" fill="white"/>
<path d="M330.387 693.522C332.802 703.519 340.016 706.947 335.382 718.783C335.904 722.683 334.187 721.032 334.315 723.838L335.193 724.744C334.352 726.679 331.472 727.453 329.143 728.541C323.992 728.416 321.543 736.005 318.318 739.369L317.803 739.312L317.463 739.779L317.311 739.051C317.817 738.322 318.455 737.536 318.765 736.739C319.151 733.295 319.425 731.575 321.566 728.848L320.048 727.937C323.995 727.619 330.347 718.976 331.92 715.475C332.986 713.095 332.832 711.774 334.74 709.998C334.448 708.04 332.607 705.421 330.374 705.546C329.025 702.438 327.296 703.326 327.715 698.862C330.085 696.767 330.414 696.585 330.387 693.522Z" fill="white"/>
<path d="M335.104 714.234C335.168 715.401 335.233 717.724 335.382 718.783C335.904 722.683 334.187 721.032 334.315 723.838C331.47 724.88 327.103 726.827 324.443 727.169C325.458 725.723 328.098 724.664 329.787 723.804C331.316 720.644 333.335 717.302 335.104 714.234Z" fill="white"/>
<path d="M321.566 728.848L322.269 728.905C322.145 731.245 320.767 735.35 318.765 736.739C319.151 733.295 319.425 731.575 321.566 728.848Z" fill="white"/>
<path d="M330.369 705.927C334.374 710.505 331.575 716.027 327.57 719.546C327.104 718.606 326.826 717.012 326.573 715.925C327.784 714.991 328.159 714.365 329.132 713.181C329.594 710.67 329.638 711.689 328.597 709.201L330.369 705.927Z" fill="white"/>
<path d="M318.765 736.739C317.123 737.872 316.293 738.903 314.701 737.428C314.32 733.87 317.246 729.89 320.048 727.938L321.566 728.848C319.425 731.575 319.151 733.295 318.765 736.739Z" fill="white"/>
<path d="M298.872 759.187C297.779 762.495 294.531 773.904 291.849 775.715C289.958 773.096 292.749 765.843 292.964 761.066C293.478 750.215 292.78 739.335 290.882 728.638C289.815 722.466 287.95 715.538 287.56 709.452C288.501 708.045 288.561 707.624 290.101 706.969C291.518 708.267 291.207 708.433 291.913 710.55C291.995 713.346 294.306 720.77 295.084 724.003C296.611 730.363 296.955 733.853 297.419 740.4L297.364 741.914C296.825 748.849 296.102 752.686 298.872 759.187Z" fill="white"/>
<path d="M317.689 670.601C319.625 667.407 318.631 668.21 321.454 666.593C327.211 666.684 326.569 675.873 326.438 679.898C326.42 680.627 326.389 681.356 326.345 682.079C325.139 683.297 323.282 685.369 321.863 686.155C319.207 684.014 317.518 688.096 313.171 688.244C311.452 687.254 312.152 687.971 311.421 685.66C312.009 685.58 312.686 685.381 313.276 685.233C312.063 683.809 312.096 683.861 311.349 682.147L311.741 681.173C314.151 679.42 314.501 680.154 318.053 679.784C316.555 678.93 315.45 678.281 314.027 677.313C314.624 675.685 315.25 675.805 317.193 674.638C317.253 673.425 317.207 673.499 317.824 672.457L320.319 672.087L319.534 671.797L319.211 671.023L317.689 670.601Z" fill="white"/>
<path d="M292.891 709.281C291.618 706.075 290.601 705.267 292.414 702.136C296.108 695.765 300.781 690.032 304.552 683.713C307.817 678.241 310.39 670.612 314.158 665.654C315.899 665.141 315.072 665.113 316.724 665.625C317.263 667.242 316.275 669.218 315.67 670.948C308.793 684.299 301.818 697.092 292.891 709.281Z" fill="white"/>
<path d="M292.891 709.281C301.818 697.092 308.794 684.299 315.67 670.948L317.689 670.601L319.211 671.022L319.534 671.797L320.319 672.087L317.824 672.457C317.207 673.499 317.253 673.425 317.193 674.638C315.25 675.805 314.624 675.685 314.027 677.313C315.45 678.281 316.555 678.93 318.053 679.784C314.501 680.154 314.151 679.42 311.741 681.173L311.349 682.147C312.096 683.861 312.063 683.809 313.276 685.233C312.686 685.381 312.009 685.58 311.421 685.66C312.152 687.971 311.453 687.254 313.171 688.244C317.518 688.096 319.207 684.014 321.863 686.155L321.704 686.81C318.004 688.871 316.883 690.562 312.822 690.92L313.212 692.042C303.701 694.057 300.905 697.946 296.807 706.184C295.789 708.051 294.651 710.277 293.52 712.036C294.332 715.025 295.121 718.008 296.04 720.963C297.462 727.368 298.325 733.887 298.621 740.445L298.253 741.009L297.419 740.4C296.955 733.853 296.611 730.363 295.084 724.003C294.306 720.77 291.995 713.346 291.913 710.55L292.507 710.448L292.891 709.281Z" fill="white"/>
<path d="M311.421 685.66C312.152 687.971 311.452 687.254 313.171 688.244C317.518 688.096 319.207 684.014 321.862 686.155L321.704 686.81C318.004 688.871 316.883 690.562 312.821 690.92C310.979 691.068 307.664 692.292 305.752 692.901L306.21 692.013C307.579 689.372 308.661 686.536 311.421 685.66Z" fill="white"/>
<path d="M326.992 693.084C326.199 691.78 327.411 688.99 327.848 687.51L329.371 688.375L329.978 689.235L330.27 693.032L330.387 693.522C330.414 696.585 330.085 696.767 327.714 698.862C327.296 703.326 329.025 702.438 330.373 705.546L330.369 705.928L328.597 709.201C327.147 708.074 327.208 708 326.333 706.468L326.237 705.603C324.527 707.641 323.437 708.882 320.744 708.643C319.494 707.561 319.49 707.681 319.022 706.115C319.807 704.886 320.133 704.795 321.328 703.975L322.042 704.015C324.992 699.853 325.597 697.809 326.992 693.084Z" fill="white"/>
<path d="M326.992 693.084C326.198 691.78 327.411 688.99 327.848 687.51L329.371 688.375L329.978 689.235L330.27 693.032L329.995 694.012L329.109 694.268L329.144 695.327L328.739 695.315L328.201 693.254C327.218 692.901 327.618 692.827 326.992 693.084Z" fill="white"/>
<path d="M322.923 686.73C324.142 685.398 324.151 685.244 325.804 684.39L326.821 684.709C327.263 685.7 327.729 686.468 327.848 687.51C327.411 688.99 326.199 691.78 326.992 693.084C325.597 697.809 324.992 699.853 322.042 704.015L321.328 703.975L320.18 701.048L319.966 700.673C320.232 698.304 320.231 696.71 322.164 695.253C323.899 693.989 326.106 690.129 326.274 687.988C323.444 686.963 322.252 693.801 317.647 694.94L317.466 694.376C319.523 692.008 323.005 689.901 322.923 686.73Z" fill="white"/>
<path d="M322.164 695.253C322.418 696.744 321.376 700.103 320.18 701.048L319.966 700.673C320.232 698.304 320.231 696.71 322.164 695.253Z" fill="white"/>
<path d="M318.236 703.895L319.022 706.115C319.49 707.681 319.494 707.562 320.745 708.643C323.437 708.882 324.527 707.641 326.237 705.603L326.334 706.469C327.208 708 327.148 708.074 328.597 709.201C329.638 711.689 329.594 710.67 329.132 713.181C328.159 714.365 327.784 714.991 326.573 715.925C326.826 717.012 327.104 718.606 327.57 719.546L326.483 719.216L326.096 719.876C325.263 715.68 324.834 714.137 323.06 710.323L320.63 709.509C318.724 708.882 317.41 708.808 316.308 707.203C316.391 705.296 316.562 705.74 318.236 703.895Z" fill="white"/>
<path d="M326.333 706.468C327.208 708 327.148 708.074 328.597 709.201C329.638 711.689 329.594 710.67 329.132 713.181C328.159 714.365 327.784 714.991 326.573 715.925C325.496 713.585 324.499 712.139 324.806 709.639C325.603 708.427 325.935 707.909 326.333 706.468Z" fill="white"/>
<path d="M296.807 706.184C299.067 708.712 299.208 712.23 299.266 715.566C299.312 718.145 297.834 719.312 296.04 720.963C295.121 718.009 294.332 715.025 293.52 712.036C294.651 710.277 295.789 708.051 296.807 706.184Z" fill="white"/>
<path d="M318.236 703.895C317.511 702.147 317.065 697.86 317.887 696.203C319.349 697.348 319.303 698.572 319.966 700.673L320.18 701.048L321.328 703.975C320.133 704.795 319.808 704.886 319.023 706.115L318.236 703.895Z" fill="white"/>
<path d="M297.419 740.4L298.253 741.009L298.621 740.445C299.705 743.918 298.655 751.416 298.239 755.327L297.85 755.094C297.501 750.892 297.847 745.45 297.365 741.914L297.419 740.4Z" fill="white"/>
<path d="M312.822 690.92C316.883 690.562 318.004 688.871 321.704 686.81L322.563 686.964C320.353 689.11 316.452 692.093 313.212 692.042L312.822 690.92Z" fill="white"/>
<path d="M300.101 705.108C301.858 701.339 302.754 700.451 306.088 697.98L306.754 698.23L304.76 700.491L305.114 701.55C305.369 707.021 304.528 709.549 303.901 714.786C303.664 716.768 305.181 722.501 305.489 724.909C305.624 725.951 305.641 727.004 305.54 728.051C305.353 730.044 303.876 736.221 302.184 737.542C301.598 735.959 304.28 730.852 304.125 727.465C303.794 720.206 301.655 712.298 300.101 705.108Z" fill="white"/>
<path d="M304.76 700.491L305.114 701.549C303.779 705 304.033 709.463 302.901 710.733C300.079 707.738 301.636 702.893 304.76 700.491Z" fill="white"/>
<path d="M416.58 361.867C418.158 361.666 418.982 361.363 420.326 362.163C420.244 363.81 393.937 420.354 391.007 425.223C389.704 424.462 388.522 422.144 387.602 420.704C387.818 422.526 388.002 424.351 388.152 426.179C388.811 434.674 381.733 447.022 376.254 453.146C369.881 460.267 364.457 463.851 354.898 464.552C352.779 464.385 350.344 463.971 348.213 463.663C349.633 462.128 351.028 460.571 352.399 458.992C357.938 452.559 365.668 439.327 357.208 432.326C362.094 423.251 366.055 411.886 370.735 402.623C373.856 396.443 379.415 388.021 383.464 382.311C393.586 368.035 399.971 364.726 416.58 361.867Z" fill="white"/>
<path d="M291.745 782.564C290.385 785.501 288.53 789.823 286.503 792.276C273.287 808.269 252.271 817.924 248.815 840.424C245.652 859.411 256.967 873.04 273.538 880.606C296.236 890.974 324.082 889.613 346.997 880.532C361.397 874.822 378.807 866.595 391.601 857.754C375.832 849.476 347.918 830.051 334.582 818.095C334.163 815.784 333.545 814.839 334.45 813.091L336.792 812.909C358.024 824.517 387.327 839.53 410.184 846.584C418.927 842.644 425.961 837.036 435.823 832.488C464.729 819.171 520.423 802.308 540.955 836.49C541.378 837.196 541.293 837.293 541.341 838.209C531.441 826.891 523.95 821.687 508.45 820.52C447.142 815.886 403.761 861.933 350.549 883.231C321.645 894.72 274.856 895.978 252.456 870.882C233.919 850.114 245.096 822.593 264.801 807.648C275.279 799.7 282.953 792.385 291.745 782.564Z" fill="white"/>
<path d="M370.04 610.892C369.556 602.045 368.026 598.832 374.385 591.163C382.215 581.719 406.196 577.936 405.399 595.149C404.84 607.229 396.839 620.625 383.327 618.934C378.814 618.37 375.224 616.959 371.133 618.768C370.574 618.838 368.599 619.049 368.178 619.175C368.883 617.538 368.985 617.543 368.961 615.691C369.155 614.183 369.664 612.386 370.04 610.892Z" fill="white"/>
<path d="M370.04 610.891L372.057 610.612C374.123 612.795 371.575 615.606 370.618 618.343L371.133 618.767C370.574 618.838 368.599 619.049 368.178 619.175C368.883 617.538 368.985 617.543 368.961 615.691C369.155 614.183 369.664 612.386 370.04 610.891Z" fill="white"/>
<path d="M388.846 587.272C403.553 586.571 403.905 599.087 397.281 609.303C394.243 613.988 391.07 615.348 385.802 616.147C368.921 614.279 368.722 597.781 381.638 589.602C383.348 588.52 386.76 587.78 388.846 587.272Z" fill="white"/>
<path d="M390.001 589.018C405.547 587.929 400.624 611.456 386.137 613.878C370.812 610.856 371.077 592.222 390.001 589.018Z" fill="white"/>
<path d="M382.706 595.823C394.556 594.748 396.914 605.32 387.966 610.421C385.546 609.609 386.107 610.152 384.575 608.437C384.679 606.425 384.962 605.456 383.87 603.792C381.404 603.556 380.36 603.636 378.2 602.462C376.612 599.486 380.385 597.355 382.706 595.823Z" fill="white"/>
<path d="M447.746 363.513C448.175 357.491 444.645 352.84 446.017 345.816C448.11 335.108 455.006 333.926 462.575 327.953C465.5 325.645 466.787 321.977 464.233 318.86C456.709 317.719 458.455 330.137 453.141 331.917L452.559 331.331C453.099 327.467 458.235 313.883 463.638 314.585C468.178 315.174 469.551 322.46 468.1 326.038C465.763 332.907 458.589 332.921 453.534 337.283C457.501 336.029 460.12 334.553 462.556 338.962C462.881 344.471 457.506 350.207 452.36 351.272C450.953 350.227 451.255 350.764 450.616 349.342C451.493 345.93 455.537 345.233 458.37 343.017C458.527 340.921 458.895 341.622 457.92 340.443C451.292 338.498 449.859 343.586 449.549 349.053C448.886 360.759 456.472 372.399 445.735 381.892C443.169 384.39 433.964 389.433 433.253 391.014C431.085 393.429 429.299 394.767 428.839 397.799C423.478 406.364 427.562 412.959 429.006 422.097C432.275 442.781 415.133 453.13 397.507 457.2L396.413 457.447C404.896 449.798 415.291 447.521 421.543 439.353L421.991 432.498L421.785 429.064C422.375 426.773 422.207 424.256 422.199 421.856C423.174 423.836 424.103 425.689 425.161 427.626L425.66 426.747C424.652 419.28 421.565 411.745 421.548 405.435C421.489 384.186 443.016 387.353 447.524 371.933C448.158 369.763 448.615 367.627 447.476 365.608L447.746 363.513Z" fill="white"/>
<path d="M422.199 421.856C423.174 423.836 424.103 425.689 425.16 427.625L425.66 426.746C426.611 428.808 424.957 435.092 423.401 436.677C421.715 435.214 423.088 433.866 421.991 432.498L421.785 429.064C422.375 426.773 422.206 424.256 422.199 421.856Z" fill="white"/>
<path d="M455.557 307.333C457.406 307.973 458.028 307.806 458.957 309.09L413.892 409.187C411.551 414.426 393.009 457.299 391.061 458.412C389.451 458.311 388.357 458.441 387.088 457.497C387.254 454.846 449.255 318.79 455.557 307.333Z" fill="white"/>
<path d="M474.815 314.781C476.198 315.739 476.915 316.04 477.64 317.562C477.436 321.034 471.488 336.888 470.055 340.907L454.802 383.746L438.29 430.772C436.328 436.217 432.852 448.771 429.15 452.193L426.698 452.124L426.311 451.419C436.305 421.571 446.809 391.896 457.817 362.406C463.614 346.543 469.724 330.889 474.815 314.781Z" fill="white"/>
<path d="M372.025 541.216C364.131 540.442 363.164 533.574 365.203 526.757C367.248 519.923 375.818 518.403 381.536 515.764C375.985 516.055 374.858 516.601 369.471 517.41L369.589 516.4L369.066 517.108L370.196 517.385L370.75 515.516C375.111 512.364 383.464 513.128 389.064 513.098C382.721 516.534 369.24 522.319 367.515 529.881C367.012 532.084 367.533 537.406 370.289 537.786C369.215 533.628 368.316 532.163 370.204 528.4L371.593 527.984C374.361 523.756 381.278 519.767 385.689 516.91C384.54 527.344 389.468 522.494 387.758 529.699L389.253 528.793L389.923 529.404C389.799 532.226 389.389 532.62 387.376 534.466L387.967 535.554L389.82 534.507C394.326 540.101 381.89 546.76 372.025 541.216Z" fill="white"/>
<path d="M372.025 541.216C364.131 540.442 363.164 533.574 365.203 526.757C367.248 519.923 375.818 518.403 381.536 515.764C375.985 516.055 374.858 516.601 369.471 517.41L369.589 516.4L369.066 517.108L370.196 517.385L370.75 515.516C375.111 512.364 383.464 513.128 389.064 513.098C382.721 516.534 369.24 522.319 367.515 529.881C367.012 532.084 367.533 537.406 370.289 537.786C369.215 533.628 368.316 532.163 370.204 528.4L370.774 529.259C372.389 531.742 371.989 532.883 374.119 534.812L375.237 534.896L375.949 533.968L378.431 531.754C378.831 535.972 377.514 537.714 374.099 540.172C372.865 540.411 372.937 540.357 372.025 541.216Z" fill="white"/>
<path d="M371.592 527.984C374.361 523.756 381.278 519.767 385.689 516.91C384.54 527.344 389.468 522.494 387.758 529.699L385.751 531.418C384.995 528.999 384.278 526.526 383.549 524.093L382.736 523.947L381.862 524.128L380.996 523.906C378.305 526.039 376.612 528.036 373.579 529.16C372.638 528.7 372.434 528.6 371.592 527.984Z" fill="white"/>
<path d="M387.967 535.554L389.82 534.507C394.326 540.101 381.89 546.76 372.025 541.216C372.937 540.357 372.865 540.411 374.099 540.172C376.416 541.249 378.281 541.087 380.857 541.186L382.779 541.837C385.422 540.054 384.076 537.797 387.967 535.554Z" fill="white"/>
<path d="M382.736 523.947L383.549 524.093C384.279 526.526 384.995 528.999 385.751 531.418L387.758 529.699L389.253 528.793L389.923 529.404C389.799 532.226 389.389 532.62 387.376 534.467L387.967 535.554C384.076 537.797 385.422 540.054 382.779 541.837L380.857 541.186L380.92 540.355C387.425 538.786 383.105 528.139 382.736 523.947Z" fill="white"/>
<path d="M387.758 529.699L389.253 528.793L389.923 529.404C389.799 532.226 389.389 532.62 387.376 534.466L386.944 534.489C385.729 533.616 386.097 533.458 385.751 531.418L387.758 529.699Z" fill="white"/>
<path d="M378.431 531.754L379.7 530.539L380.492 531.016C381.051 534.796 380.281 536.998 380.92 540.355L380.857 541.185C378.281 541.086 376.416 541.249 374.099 540.172C377.514 537.714 378.831 535.972 378.431 531.754Z" fill="white"/>
<path d="M371.593 527.984C372.434 528.6 372.638 528.7 373.579 529.16C376.612 528.036 378.305 526.039 380.996 523.906L381.862 524.128C379.292 526.603 374.805 529.298 374.611 532.225C375.272 533.439 374.95 533.273 375.949 533.968L375.238 534.896L374.119 534.812C371.989 532.883 372.39 531.742 370.774 529.259L370.204 528.4L371.593 527.984Z" fill="white"/>
<path d="M359.264 479.774C360.424 479.73 361.585 479.698 362.745 479.677C373.63 479.504 371.77 488.292 371.845 496.523C365.233 499.528 363.394 499.746 356.056 500.3C353.071 500.673 350.102 499.863 347.645 498.139C345.639 496.748 344.299 494.588 343.945 492.173C343.549 489.683 344.207 487.14 345.761 485.154C349.119 480.825 354.285 480.303 359.264 479.774Z" fill="white"/>
<path d="M420.314 575.209C423.315 568.246 425.808 565.829 432.255 562.14C423.66 570.89 421.859 577.953 419.402 589.713C418.86 592.303 417.385 596.238 417.641 598.688L419.378 594.737C419.997 595.915 420.632 596.915 420.985 598.177C419.226 602.326 418.045 604.987 415.856 608.895L412.774 612.318C410.316 612.657 408.325 612.955 405.828 613.062L406.731 612.076C402.84 611.356 406.42 613.22 402.795 612.267L402.792 612.326L402.779 611.281C403.844 609.414 405.521 608.95 407.548 607.98L407.825 607.153C406.549 607.116 406.575 607.178 405.415 606.686L405.275 605.241C406.234 602.812 406.937 602.586 409.059 601.036L407.825 601.447L407.223 600.638C407.493 599.238 409.17 597.912 410.278 596.822L410.231 596.196L408.042 597.47L407.698 596.766L408.186 595.432C407.511 594.291 407.661 594.227 407.744 592.861C408.614 590.926 409.51 589.726 410.693 587.979C413.452 584.709 415.077 582.402 416.653 578.463L417.868 579.117L419.425 574.493L420.314 575.209Z" fill="white"/>
<path d="M419.378 594.737C419.997 595.915 420.632 596.915 420.985 598.177C419.226 602.326 418.045 604.987 415.856 608.895L412.774 612.318C410.316 612.657 408.325 612.955 405.828 613.062L406.731 612.076C411.664 609.266 415.541 603.878 417.641 598.688L419.378 594.737Z" fill="white"/>
<path d="M410.693 587.979C413.452 584.709 415.077 582.401 416.653 578.463L417.868 579.116C416.892 583.949 413.414 591.502 408.836 593.743C407.908 593.295 408.251 593.613 407.744 592.86C408.614 590.926 409.51 589.726 410.693 587.979Z" fill="white"/>
<path d="M417.868 579.117L419.425 574.493L420.314 575.209C417.589 584.542 416.898 589.844 408.186 595.432C407.511 594.291 407.661 594.227 407.744 592.861C408.251 593.613 407.908 593.295 408.836 593.743C413.414 591.502 416.892 583.949 417.868 579.117Z" fill="white"/>
<path d="M418.861 607.051L420.621 608.578C403.213 636.839 388.878 621.422 364.54 625.103L363.337 624.58C370.083 620.862 378.077 621.964 385.485 622.534C386.634 622.378 387.611 622.14 388.739 621.892C392.603 619.021 395.619 620.127 399.091 618.229L397.444 617.66L397.665 616.909C400.306 614.498 402.376 614.286 405.828 613.062C408.325 612.955 410.316 612.657 412.774 612.318L415.856 608.895L417.014 609.527L418.861 607.051Z" fill="white"/>
<path d="M405.828 613.062C408.325 612.955 410.316 612.657 412.775 612.318C404.944 619.431 399.431 622.224 388.739 621.892C392.603 619.021 395.619 620.127 399.091 618.229L397.444 617.66L397.665 616.909C400.306 614.498 402.376 614.286 405.828 613.062Z" fill="white"/>
<path d="M412.775 612.318L415.856 608.895L417.014 609.527C409.388 620.517 398.524 624.587 385.485 622.534C386.634 622.377 387.611 622.139 388.739 621.892C399.43 622.224 404.944 619.431 412.775 612.318Z" fill="white"/>
<path d="M473.193 282.683C481.192 283.438 482.587 285.605 485.326 293.002C484.727 297.596 484.181 301.957 480.805 305.349L480.088 304.992C479.486 301.118 480.863 298.56 482.178 294.768C481.421 293.131 480.508 290.568 479.155 289.567L478.946 290.482C478.93 294.45 475.756 301.357 471.291 300.23C470.912 299.306 470.867 298.516 470.808 297.526L468.898 299.842L468.256 299.73C468.115 298.273 468.188 298.254 467.573 296.952C464.331 298.308 463.65 298.022 460.374 297.223C464.101 289.601 465.095 285.963 473.193 282.683Z" fill="white"/>
<path d="M328.201 682.397C327.875 659.761 339.377 642.574 355.373 627.684C359.773 623.587 365.785 620.775 368.961 615.691C368.985 617.543 368.883 617.538 368.178 619.175C366.601 621.009 364.987 622.811 363.337 624.58C347.57 637.507 336.407 653.715 331.159 673.357C330.349 676.385 329.257 679.443 328.201 682.397Z" fill="white"/>
<path d="M364.036 620.055C363.438 613.081 364.438 604.258 364.602 597.141C364.949 582.018 378.313 569.606 392.146 564.853C388.485 567.61 385.337 570.655 381.53 573.495L382.127 574.039L381.753 574.467C376.646 580.24 369.56 584.624 369.876 593.95C369.129 595.611 369.671 594.855 367.828 595.983C367.48 605.749 367.253 610.92 364.036 620.055Z" fill="white"/>
<path d="M381.53 573.495L382.127 574.039L381.753 574.467C376.646 580.24 369.56 584.624 369.876 593.95C369.129 595.611 369.671 594.855 367.828 595.983C368.353 587.233 374.573 578.437 381.53 573.495Z" fill="white"/>
<path d="M341.265 566.42C343.17 566.698 345.476 566.782 346.943 567.896C342.939 577.654 337.732 592.265 333.22 600.931C331.309 600.463 330.68 600.475 329.254 599.097C333.507 588.298 337.512 577.402 341.265 566.42Z" fill="white"/>
<path d="M375.069 569.39L375.59 569.79C375.387 571.29 365.485 580.985 363.79 586.421C360.036 598.451 366.543 614.747 357.739 624.253L357.285 623.683C357.372 622.751 357.406 621.997 357.671 621.088C360.617 610.973 357.422 599.521 359.879 589.199C361.901 580.699 367.764 573.927 375.069 569.39Z" fill="white"/>
<path d="M347.651 675.833C348.511 677.057 348.589 679.164 348.28 680.559C345.186 694.541 342.87 708.415 341.179 722.643C340.992 724.214 339.519 724.567 338.251 725.239C338.146 725.085 337.577 724.299 337.59 724.066C338.277 711.512 341.306 685.608 347.651 675.833Z" fill="white"/>
<path d="M402.67 571.513C407.161 570.62 410.82 569.807 415.013 567.909L413.663 571.125C412.446 572.059 408.191 574.254 408.019 574.508C404.558 576.463 403.867 575.443 400.311 576.308L398.942 574.607L398.246 575.518C393.736 577.57 391.043 580.478 386.521 582.605C388.337 580.648 390.827 578.168 392.252 575.995C385.413 581.164 385.612 580.954 378.334 585.087C378.514 582.178 382.624 577.049 384.803 575.139L394.689 571.389C397.845 570.72 397.097 570.574 400.545 572.176L402.67 571.513Z" fill="white"/>
<path d="M408.028 514.292C409.274 515.194 410.227 515.716 411.032 517.025C408.916 523.777 401.152 547.782 398.245 553.35L397.406 553.518L395.318 551.682C394.732 548.849 406.084 518.508 408.028 514.292Z" fill="white"/>
<path d="M310.539 644.327C314.838 644.708 324.244 647.367 326.179 651.643L325.698 652.326C322.972 652.673 317.126 651.102 313.926 650.516L313.994 651.466C315.863 653.271 317.317 653.408 319.839 654.108C325.518 656.203 326.166 655.639 326.281 661.93C324.823 662.192 312.175 658.019 309.999 657.29C310.81 651.449 311.154 650.322 310.539 644.327Z" fill="white"/>
<path d="M377.161 554.052C372.663 552.074 369.94 551.046 365.303 549.621C361.147 548.344 353.781 546.886 350.184 545.038C349.901 543.22 349.997 543.787 351.124 541.777C357.7 539.25 375.129 547.918 381.69 550.065L382.218 550.234C381.936 551.576 381.734 552.664 381.527 554.018C380.068 554.557 378.743 554.227 377.161 554.052Z" fill="white"/>
<path d="M408.019 574.508C408.191 574.254 412.445 572.059 413.663 571.125C414.938 572.171 414.771 571.725 415.357 573.057L415.408 574.248L416.681 575.594L416.653 578.463C415.077 582.401 413.452 584.709 410.693 587.979L410.405 586.976C409.234 588.265 409.182 588.336 407.757 589.321L406.9 588.974C407.384 586.446 407.208 587.251 409.104 585.06L408.52 584.602L406.876 585.567C405.443 585.391 405.991 585.744 405.106 584.647C405.984 583.789 405.847 584.022 406.484 582.995L403.903 582.838L403.617 582.293C404.532 581.493 405.428 580.673 406.304 579.832C403.875 580.691 399.884 582.63 397.864 580.588L396.847 579.709L400.311 576.308C403.867 575.443 404.558 576.463 408.019 574.508Z" fill="white"/>
<path d="M409.104 585.06C411.844 582.004 413.553 577.959 415.408 574.248L416.681 575.594L416.653 578.463C415.077 582.401 413.452 584.709 410.693 587.979L410.405 586.977C409.234 588.265 409.182 588.336 407.757 589.321L406.9 588.974C407.384 586.446 407.208 587.251 409.104 585.06Z" fill="white"/>
<path d="M410.405 586.976C413.826 582.114 414.533 580.999 416.681 575.594L416.653 578.463C415.077 582.401 413.452 584.709 410.693 587.979L410.405 586.976Z" fill="white"/>
<path d="M408.52 584.602C411.633 579.507 411.187 577.597 415.357 573.057L415.408 574.248C413.553 577.959 411.844 582.004 409.104 585.06L408.52 584.602Z" fill="white"/>
<path d="M408.019 574.508C404.891 579.291 402.462 574.692 397.864 580.588L396.847 579.709L400.311 576.308C403.867 575.443 404.558 576.463 408.019 574.508Z" fill="white"/>
<path d="M329.371 688.375C330.588 684.766 334.036 674.569 334.517 671.04L335.154 670.704C335.763 673.158 335.405 675.429 336.307 676.488C338.109 678.6 339.507 682.859 340.252 685.449L339.945 686.485C338.616 686.292 338.527 686.241 337.267 685.757L337.616 685.717C338.217 688.199 339.506 688.666 339.803 691.319L339.175 691.865C337.76 690.681 337.446 690.266 336.273 688.814C336.272 690.567 337.243 691.37 338.384 692.788L338.414 693.915L337.743 694.609C336.776 694.091 336.443 693.83 335.56 693.169C335.22 695.987 338.261 701.077 339.633 703.724C329.877 696.631 332.141 691.609 329.978 689.235L329.371 688.375Z" fill="white"/>
<path d="M329.254 599.097C330.68 600.475 331.309 600.463 333.22 600.931C329.564 607.333 329.238 611.39 326.941 618.165C326.795 618.597 324.056 619.095 323.538 619.188C321.011 623.217 328.885 635.422 320.664 634.699L319.74 634.506L319.128 634.023C317.833 634.546 317.792 634.623 316.422 634.758C315.962 632.923 327.466 603.893 329.254 599.097Z" fill="white"/>
<path d="M362.598 631.786C372.131 630.909 377.852 635.092 387.069 636.282C392.623 636.999 398.696 635.808 404.484 635.409C400.946 637.342 398.772 638.23 394.989 639.71C383.137 642.562 374.403 633.512 357.959 635.086L355.718 635.3L354.892 635.386C354.584 632.503 360.487 631.98 362.598 631.786Z" fill="white"/>
<path d="M421.785 429.064C419.937 426.067 415.338 425.155 413.361 428.596C413.525 430.576 413.085 429.874 414.217 431.049C415.986 431.241 417.171 431.142 418.482 432.287C419.363 434.743 418.042 438.875 415.944 440.173C414.233 436.337 414.601 438.062 411.995 436.492C410.631 435.655 409.651 434.316 409.264 432.764C407.638 426.251 414.038 416.025 422.199 421.856C422.207 424.256 422.375 426.773 421.785 429.064Z" fill="white"/>
<path d="M340.831 596.089L341.572 597.097C340.571 601.797 339.895 605.565 340.366 610.415C341.47 621.77 347.646 629.006 341.365 640.148C340.596 639.414 340.945 636.349 340.974 635.222C341.396 618.965 331.064 612.45 340.831 596.089Z" fill="white"/>
<path d="M352.735 588.446L353.213 589.355C353.83 590.517 354.254 591.142 354.996 592.218L355.079 593.676C353.275 607.594 360.562 614.41 352.222 629.052C352.377 625.006 352.558 620.48 352.343 616.464C351.8 606.312 349.14 598.296 352.735 588.446Z" fill="white"/>
<path d="M382.127 574.039C384.118 572.623 402.348 562.587 404.325 562.911C401.812 565.793 397.236 568.593 393.784 570.267L394.689 571.389L384.803 575.139C382.624 577.049 378.514 582.178 378.334 585.087C377.148 586.175 377.868 585.775 375.91 585.896C373.445 589.12 371.732 590.242 369.876 593.95C369.56 584.623 376.646 580.24 381.753 574.467L382.127 574.039Z" fill="white"/>
<path d="M383.926 574.574L384.803 575.139C382.624 577.049 378.514 582.178 378.334 585.088C377.148 586.176 377.868 585.775 375.91 585.896C378.193 581.227 380.168 578.129 383.926 574.574Z" fill="white"/>
<path d="M383.926 574.574C385.554 573.578 391.701 571.141 393.784 570.267L394.689 571.389L384.803 575.139L383.926 574.574Z" fill="white"/>
<path d="M348.988 588.279L349.416 589.126C348.633 593.377 347.246 599.956 347.461 604.098C347.996 614.338 352.972 623.781 347.447 633.573C346.153 630.561 347.815 626.605 347.27 623.634C344.429 608.172 341.444 602.994 348.988 588.279Z" fill="white"/>
<path d="M343.94 558.466C350.093 559.985 363.862 563.158 368.533 566.738C368.452 567.941 367.847 568.227 366.893 569.387C364.913 569.702 347.488 564.4 342.831 563.401C342.389 561.871 343.341 560.064 343.94 558.466Z" fill="white"/>
<path d="M355.763 667.271L355.525 666.878C355.884 665.916 355.748 666.388 355.417 665.113C349.989 660.422 348.231 662.631 345.613 660.627L345.777 659.784C350.414 657.211 359.168 658.15 363.978 659.881C365.784 661.196 365.183 660.342 365.752 662.591C365.191 664.982 364.478 666.035 362.389 667.533C361.061 668.284 361.555 667.76 360.917 669.218C358.926 667.533 358.478 667.652 355.763 667.271Z" fill="white"/>
<path d="M363.978 659.881C365.784 661.196 365.183 660.342 365.752 662.591C365.191 664.982 364.478 666.035 362.389 667.533C361.125 666.946 360.22 666.28 359.073 665.511L360.297 664.8L359.4 663.154L359.652 662.437L360.782 662.312C361.288 662.915 361.812 663.502 362.353 664.071C364.794 661.623 361.801 662.773 363.978 659.881Z" fill="white"/>
<path d="M364.289 512.407C366.171 512.455 366.267 512.373 368.102 513.03C367.363 516.69 359.214 533.736 356.956 537.378C355.38 537.538 354.645 537.767 353.194 537.126C354.29 532.726 361.844 516.08 364.289 512.407Z" fill="white"/>
<path d="M433.253 391.014C448.316 387.334 442.46 409.497 430.929 405.083C430.062 403.651 430.193 403.682 430.232 401.973C432.59 398.138 435.7 400.884 438.359 398.594C438.038 396.858 437.774 396.783 436.638 395.449C433.197 394.139 431.454 395.596 428.839 397.799C429.299 394.767 431.085 393.429 433.253 391.014Z" fill="white"/>
<path d="M385.168 627.866C395.859 630.279 400.35 630.741 410.322 625.163C415.522 622.255 418.727 617.658 421.74 615.706C411.038 632.777 401.151 634.973 382.36 631.212C384.97 630.04 384.328 630.408 385.168 627.866Z" fill="white"/>
<path d="M353.06 673.675C348.201 670.39 342.999 669.781 338.84 665.938L339.01 665.255C344.496 661.327 351.954 666.935 357.154 669.628L355.763 667.271C358.479 667.652 358.926 667.533 360.917 669.218C359.795 673.954 357.941 675.867 353.06 673.675Z" fill="white"/>
<path d="M355.763 667.271C358.479 667.652 358.926 667.533 360.917 669.218C359.795 673.954 357.941 675.867 353.06 673.675C354.144 671.318 355.654 672.81 357.154 669.628L355.763 667.271Z" fill="white"/>
<path d="M356.224 435.488C360.625 439.151 356.401 449.313 353.702 453.246C351.736 456.111 350.189 457.61 347.607 459.796L346.818 459.864L346.387 458.831C347.588 452.618 352.979 441.075 356.224 435.488Z" fill="white"/>
<path d="M458.901 300.808C465.822 300.641 475.472 304.09 479.822 309.74C480.65 310.816 479.822 312.903 479.543 314.217C473.891 310.365 467.481 306.597 460.61 305.371C458.854 305.057 459.108 305.213 457.243 304.611C457.182 303.037 457.935 302.447 458.901 300.808Z" fill="white"/>
<path d="M353.097 645.375C360.235 644.828 374.463 648.66 382.127 650.407C375.467 651.125 371.651 651.216 365.053 650.202C353.732 647.874 350.692 648.267 340.268 653.168C345.099 647.788 346.13 646.826 353.097 645.375Z" fill="white"/>
<path d="M349.337 652.127C354.173 651.808 367.056 652.969 370.418 656.727L369.792 657.364C365.841 657.928 362.747 656.892 358.778 656.095C345.682 655.201 348.982 655.975 338.828 659.869L338.458 659.249C340.468 654.677 344.92 653.749 349.337 652.127Z" fill="white"/>
<path d="M362.018 637.808C367.348 638.173 372.623 640.598 378.029 641.805C381.386 642.556 386.972 642.386 389.287 643.963L389.082 644.777C381.335 649.126 370.775 642.636 362.433 641.406L363.322 640.678L363.383 639.812L361.857 638.793L362.018 637.808Z" fill="white"/>
<path d="M390.926 542.216C399.21 527.131 382.885 518.129 389.362 513.127C391.735 514.6 396.268 529.237 396.911 532.53L397.099 533.46C397.132 533.647 397.165 533.834 397.198 534.021C395.895 537.4 394.894 540.119 392.611 543.031L390.926 542.216Z" fill="white"/>
<path d="M325.831 621.705C330.903 624.925 336.294 643.644 334.518 650.385C334.209 650.294 333.753 649.941 333.451 649.736C331.862 642.055 324.927 625.653 325.831 621.705Z" fill="white"/>
<path d="M357.553 557.96C358.935 556.445 359.702 553.987 360.894 551.888C362.677 550.991 362.104 551.272 364.564 551.797C364.841 552.252 364.981 552.637 365.36 552.894C367.744 553.165 367.139 552.745 368.615 554.127L368.881 555.756C367.792 558.399 367.75 559.041 367.419 561.907L366.817 562.531C365.494 561.846 364.542 561.514 363.164 560.978L361.702 560.779L357.009 558.643L357.553 557.96Z" fill="white"/>
<path d="M365.36 552.894C367.744 553.165 367.139 552.744 368.615 554.127L368.881 555.756C367.792 558.399 367.75 559.04 367.419 561.907L366.817 562.53C365.494 561.846 364.542 561.514 363.164 560.978C364.278 557.768 364.876 556.266 365.36 552.894Z" fill="white"/>
<path d="M364.564 551.797C364.841 552.252 364.981 552.637 365.36 552.894C364.876 556.266 364.278 557.768 363.164 560.978L361.702 560.779C363.104 558.037 364.055 554.828 364.564 551.797Z" fill="white"/>
<path d="M382.218 550.234C386.5 551.89 393.035 554.35 395.298 558.356L395.098 559.491C391.487 561.522 380.787 556.104 377.161 554.052C378.743 554.227 380.068 554.557 381.527 554.019C381.734 552.664 381.937 551.576 382.218 550.234Z" fill="white"/>
<path d="M331.918 623.746C332.122 620.648 331.724 619.099 333.646 617.219C337.586 630.493 341.269 633.012 337.642 646.861C336.165 639.118 336.172 631.781 332.316 624.774C332.044 624.28 332.081 624.297 331.918 623.746Z" fill="white"/>
<path d="M421.209 562.705C422.944 564.032 422.406 563.213 423.072 565.106L419.425 574.492L417.868 579.117L416.653 578.463L416.681 575.594L415.408 574.248L415.357 573.057C414.771 571.725 414.938 572.171 413.663 571.125L415.013 567.909C417.53 566.269 419.034 564.737 421.209 562.705Z" fill="white"/>
<path d="M382.36 631.212C378.65 630.196 372.421 629.017 368.576 628.787C366.031 628.634 364.106 629.632 361.205 629.121C364.48 623.825 380.16 626.907 385.168 627.866C384.328 630.408 384.97 630.04 382.36 631.212Z" fill="white"/>
<path d="M368.881 555.756L369.825 556.464C372.453 555.193 371.409 555.29 374.147 555.497L375.01 557.49L376.527 557.305L377.161 558.126C376.445 561.374 375.773 562.421 373.463 564.851L372.461 564.971L371.671 563.872L370.538 563.326C369.239 563.579 368.284 562.996 366.817 562.531L367.419 561.907C367.75 559.041 367.792 558.399 368.881 555.756Z" fill="white"/>
<path d="M375.01 557.49L376.527 557.305L377.161 558.126C376.445 561.374 375.773 562.421 373.463 564.851L372.461 564.971L371.67 563.872L375.01 557.49Z" fill="white"/>
<path d="M374.147 555.497L375.01 557.49L371.67 563.872L370.538 563.326C371.727 560.323 373.429 558.836 374.147 555.497Z" fill="white"/>
<path d="M319.74 634.506L320.664 634.699C321.772 637.689 324.864 638.355 327.633 639.323C328.912 642.369 333.683 652.406 331.445 654.865C329.889 652.816 328.252 648.096 327.272 645.46C325.763 641.412 320.602 639.59 318.978 636.133L319.74 634.506Z" fill="white"/>
<path d="M436.856 365.446C439.591 367.159 439.312 367.499 441.298 369.91L443.944 368.923L444.671 369.358C445.054 370.837 444.58 373.541 443.179 374.329C442.221 372.953 441.897 372.612 440.545 371.623C441.053 374.904 441.511 375.804 440.279 378.801L439.462 379.105C436.841 376.604 435.72 368.757 436.856 365.446Z" fill="white"/>
<path d="M353.452 569.104C355.72 570.087 358.166 571.08 360.344 572.219C356.16 575.879 353.705 578.235 350.519 582.841C350.719 579.132 351.775 573.568 351.829 571.216C352.001 570.831 353.117 569.518 353.452 569.104Z" fill="white"/>
<path d="M447.476 365.608C441.411 361.591 442.862 365.69 438.822 363.759C437.818 361.79 437.995 362.794 438.193 360.652C441.677 355.103 446.098 358.128 447.746 363.513L447.476 365.608Z" fill="white"/>
<path d="M351.931 556.46L351.473 556.56L351.121 556.192C351.98 553.888 353.185 551.471 355.037 549.811L355.997 550.482L356.429 550.538C358.527 550.482 357.674 550.142 359.145 551.391C359.401 554.244 358.067 555.213 357.553 557.96L357.009 558.643C355.148 557.36 354.834 558.893 352.624 557.352L351.931 556.46Z" fill="white"/>
<path d="M351.931 556.46L351.473 556.56L351.121 556.192C351.98 553.888 353.185 551.471 355.037 549.811L355.997 550.482C354.534 552.893 353.688 554.183 351.931 556.46Z" fill="white"/>
<path d="M355.997 550.482L356.429 550.538C355.859 554.428 355.418 554.512 352.624 557.352L351.931 556.46C353.688 554.183 354.534 552.893 355.997 550.482Z" fill="white"/>
<path d="M433.787 408.517C434.486 408.656 435.376 408.915 436.06 409.095C437.418 412.632 434.057 418.648 432.501 421.863L431.918 422.183C430.284 418.026 430.483 411.806 433.787 408.517Z" fill="white"/>
<path d="M345.735 645.079C346.122 644.64 346.513 644.208 346.908 643.781C352.026 638.19 354.837 638.116 362.018 637.808L361.857 638.793L363.383 639.812L363.322 640.678L362.433 641.406C354.401 641.258 352.891 641.64 345.735 645.079Z" fill="white"/>
<path d="M406.209 434.39C410.481 439.704 410.51 440.021 408.619 446.681L406.832 447.327C404.538 445.11 405.625 437.392 406.209 434.39Z" fill="white"/>
<path d="M343.633 581.46C344.712 577.556 345.594 575.904 347.413 572.244L349.394 574.478C348.526 577.25 348.367 582.519 347.296 584.258L346.397 584.281L345.358 582.48L343.633 581.46Z" fill="white"/>
<path d="M347.688 548.489C349.953 548.901 350.934 548.686 352.445 550.057C352.732 551.968 350.77 554.759 349.731 556.629C348.366 557.025 347.012 556.714 346.072 555.712C345.896 553.132 346.862 550.989 347.688 548.489Z" fill="white"/>
<path d="M352.735 588.446C353.735 585.147 356.142 581.307 358.472 578.763L359.061 578.909C358.863 582.316 356.089 589.164 355.079 593.676L354.996 592.218C354.254 591.142 353.83 590.517 353.213 589.355L352.735 588.446Z" fill="white"/>
<path d="M327.878 807.477C330.913 809.419 333.65 811.149 336.792 812.909L334.45 813.091C333.545 814.839 334.163 815.784 334.582 818.095C332.435 816.142 330.004 814.127 327.786 812.22C327.198 810.734 327.644 809.145 327.878 807.477Z" fill="white"/>
<path d="M431.105 578.428C425.922 585.712 423.458 589.519 420.985 598.177C420.632 596.915 419.997 595.915 419.378 594.737C422.985 586.441 423.746 584.062 431.105 578.428Z" fill="white"/>
<path d="M312.839 798.004L327.878 807.477C327.644 809.145 327.198 810.734 327.786 812.22C322.783 808.451 317.286 802.552 312.839 798.004Z" fill="white"/>
<path d="M396.215 516.199C402.856 517.991 401.026 523.361 399.637 528.37L399.09 528.809C398.119 527.048 396.477 518.358 396.215 516.199Z" fill="white"/>
<path d="M458.24 351.486L458.644 351.958C458.425 354.355 455.437 360.912 454.368 363.484C453.914 361.978 453.276 355.881 453.043 353.977C454.791 353.212 456.525 352.329 458.24 351.486Z" fill="white"/>
<path d="M315.383 636.645C316.868 638.526 320.755 642.26 321.121 644.082L320.271 644.646C317.532 643.593 314.885 642.334 312.214 641.122L315.383 636.645Z" fill="white"/>
<path d="M343.633 581.46L345.358 582.48C344.623 585.993 344.47 588.409 342.064 591.066L341.115 591.106C339.746 588.191 342.325 584.2 343.633 581.46Z" fill="white"/>
<path d="M408.028 514.292L409.145 513.61L409.203 513.043C409.407 511.199 409.682 508.615 411.369 507.512C413.164 507.981 412.521 507.486 413.491 508.861C413.199 511.732 412.046 514.295 411.032 517.025C410.227 515.716 409.274 515.194 408.028 514.292Z" fill="white"/>
<path d="M418.861 607.051C420.554 603.923 423.921 597.484 427.69 596.977L427.874 597.552C425.953 600.12 421.518 605.814 420.621 608.578L418.861 607.051Z" fill="white"/>
<path d="M423.099 447.691L423.487 448.097C423.656 452.883 418.587 454.467 414.716 454.843L414.341 454.011C416.179 452.111 420.706 449.29 423.099 447.691Z" fill="white"/>
<path d="M404.067 441.243L404.783 442.054C406.032 447.303 403.529 448.625 399.45 451.126L398.978 450.39C400.273 446.929 402.089 444.352 404.067 441.243Z" fill="white"/>
<path d="M404.721 568.389C413.85 563.945 412.153 562.629 417.88 556.016C415.254 562.964 412.111 568.387 404.118 570.005L404.721 568.389Z" fill="white"/>
<path d="M331.918 623.746C330.906 615.989 330.826 612.135 334.371 605.391C333.875 609.23 333.798 613.332 333.646 617.219C331.724 619.099 332.122 620.648 331.918 623.746Z" fill="white"/>
<path d="M390.926 542.216L392.611 543.031C389.967 545.238 384.915 547.802 381.774 545.337C382.457 544.734 388.081 543.923 390.926 542.216Z" fill="white"/>
<path d="M433.691 373.538C435.29 375.767 435.131 380.33 433.233 382.37C432.123 380.94 432.11 380.941 431.402 379.282C431.363 377.023 432.531 375.568 433.691 373.538Z" fill="white"/>
<path d="M347.413 572.244C348.025 570.675 348.325 570.1 349.138 568.607C351.202 567.866 350.796 568.223 353.452 569.104C353.117 569.518 352.001 570.831 351.83 571.216L349.394 574.478L347.413 572.244Z" fill="white"/>
<path d="M418.735 406.526C419.337 409.379 420.684 414.264 419.664 416.801C418.693 416.055 418.595 415.883 417.75 414.98C416.704 411.387 417.241 409.956 418.735 406.526Z" fill="white"/>
<path d="M398.247 575.518L398.942 574.607L400.311 576.308L396.847 579.709C395.794 580.704 394.838 581.015 393.523 581.606L393.22 581.332C394.041 579.028 396.444 577.101 398.247 575.518Z" fill="white"/>
<path d="M403.578 511.51L404.19 512.324C404.226 513.904 404.322 515.649 402.732 516.387L401.758 515.21C400.571 515.085 400.015 514.909 398.855 514.6L398.562 513.806C400.199 512.376 401.448 512.191 403.578 511.51Z" fill="white"/>
<path d="M421.209 562.705C422.35 560.522 423.334 558.645 424.312 556.365L424.893 556.316C424.694 560.469 423.329 562.316 423.072 565.106C422.406 563.213 422.944 564.032 421.209 562.705Z" fill="white"/>
<path d="M400.545 572.177C400.221 569.729 400.356 569.559 401.563 567.923C403.72 567.51 402.7 567.385 404.721 568.389L404.118 570.005L402.67 571.513L400.545 572.177Z" fill="white"/>
<path d="M430.257 380.38C430.802 380.931 431.315 381.849 431.751 382.532C431.253 384.299 430.143 384.756 428.531 386.135C428.249 386.445 428.464 386.26 427.742 386.452C427.937 384.593 429.375 382.143 430.257 380.38Z" fill="white"/>
</g>
<defs>
<clipPath id="clip0_1_2">
<rect width="1080" height="1080" fill="white"/>
</clipPath>
</defs>
</svg>
